<svg width="21" height="21" viewBox="0 0 21 21" fill="none" xmlns="http://www.w3.org/2000/svg">
<path fill-rule="evenodd" clip-rule="evenodd" d="M4.87497 16.9061H16.0855C16.2979 16.9061 16.5016 16.9905 16.6518 17.1407C16.8019 17.2909 16.8863 17.4945 16.8863 17.7069C16.8863 17.9193 16.8019 18.123 16.6518 18.2731C16.5016 18.4233 16.2979 18.5077 16.0855 18.5077H4.87497C4.6626 18.5077 4.45893 18.4233 4.30875 18.2731C4.15858 18.123 4.07422 17.9193 4.07422 17.7069C4.07422 17.4945 4.15858 17.2909 4.30875 17.1407C4.45893 16.9905 4.6626 16.9061 4.87497 16.9061ZM4.07422 12.9024L12.0818 4.89482L14.484 7.29709L6.47648 15.3046H4.07422V12.9024ZM12.8825 4.09406L14.484 2.49255L16.8863 4.89482L15.284 6.49713L12.8825 4.09406Z" fill="#1A1A1A"/>
</svg>
