<svg width="30" height="30" viewBox="0 0 30 30" fill="none" xmlns="http://www.w3.org/2000/svg">
<circle cx="15" cy="15" r="15" fill="#CCCCCC"/>
<path d="M22.2353 17.4468C22.3095 17.5756 22.3296 17.7285 22.2914 17.8721C22.2532 18.0157 22.1597 18.1383 22.0314 18.2133C21.9467 18.2646 21.8493 18.2914 21.7502 18.2906C21.6506 18.2915 21.5525 18.2659 21.4661 18.2165C21.3796 18.1671 21.3078 18.0956 21.258 18.0093L19.9642 15.7734C19.2051 16.284 18.3697 16.6709 17.4892 16.9195L17.897 19.2328C17.9217 19.3799 17.8876 19.5308 17.8021 19.6531C17.7167 19.7754 17.5867 19.8593 17.44 19.8867H17.3416C17.2092 19.8871 17.0809 19.8408 16.9793 19.7559C16.8777 19.671 16.8093 19.553 16.7861 19.4226L16.3853 17.1445C15.9267 17.2129 15.4638 17.2481 15.0002 17.25C14.5344 17.2502 14.0691 17.2173 13.608 17.1515L13.2072 19.4297C13.184 19.56 13.1156 19.678 13.014 19.7629C12.9124 19.8478 12.7841 19.8941 12.6517 19.8937H12.5533C12.4066 19.8663 12.2766 19.7824 12.1912 19.6602C12.1057 19.5379 12.0716 19.3869 12.0963 19.2398L12.5111 16.9195C11.6279 16.6725 10.7899 16.2856 10.0291 15.7734L8.72829 18.0234C8.67804 18.1077 8.60711 18.1778 8.52221 18.227C8.43731 18.2762 8.34126 18.3029 8.24314 18.3047C8.14457 18.3043 8.04782 18.2781 7.96258 18.2286C7.87735 18.179 7.80662 18.108 7.75748 18.0226C7.70835 17.9371 7.68253 17.8402 7.68262 17.7417C7.6827 17.6431 7.70869 17.5463 7.75798 17.4609L9.12907 15.0843C8.64995 14.6734 8.2098 14.2192 7.81423 13.7273C7.76748 13.6703 7.73255 13.6046 7.71146 13.5339C7.69038 13.4633 7.68356 13.3892 7.69141 13.3159C7.69927 13.2426 7.72163 13.1716 7.7572 13.107C7.79278 13.0425 7.84084 12.9856 7.8986 12.9398C7.95517 12.8927 8.02053 12.8572 8.09091 12.8356C8.16128 12.8139 8.23526 12.8065 8.30854 12.8137C8.38182 12.8209 8.45293 12.8426 8.51775 12.8775C8.58257 12.9124 8.6398 12.9599 8.68611 13.0172C9.12624 13.5659 9.62885 14.0614 10.1838 14.4937H10.1908C11.5638 15.5648 13.2589 16.1397 15.0002 16.125C17.0603 16.125 18.6424 15.4008 19.8025 14.5008H19.8166C20.3715 14.0684 20.8741 13.5729 21.3142 13.0242C21.36 12.9664 21.4169 12.9184 21.4814 12.8828C21.546 12.8472 21.617 12.8249 21.6903 12.817C21.7636 12.8091 21.8377 12.816 21.9084 12.837C21.979 12.8581 22.0447 12.8931 22.1017 12.9398C22.1595 12.9856 22.2076 13.0425 22.2431 13.107C22.2787 13.1716 22.3011 13.2426 22.3089 13.3159C22.3168 13.3892 22.31 13.4633 22.2889 13.5339C22.2678 13.6046 22.2329 13.6703 22.1861 13.7273C21.7905 14.2192 21.3504 14.6734 20.8713 15.0843L22.2353 17.4468Z" fill="white"/>
</svg>
